HIERARCHY
ROOT Hips
{
	OFFSET 0.000000 0.000000 0.000000
	CHANNELS 6 Xposition Yposition Zposition Zrotation Yrotation Xrotation 
	JOINT LHipJoint
	{
		OFFSET 0.000000 0.000000 0.000000
		CHANNELS 3 Zrotation Yrotation Xrotation
		JOINT LeftUpLeg
		{
			OFFSET 1.363060 -1.794630 0.839290
			CHANNELS 3 Zrotation Yrotation Xrotation
			JOINT LeftLeg
			{
				OFFSET 2.448110 -6.726130 0.000000
				CHANNELS 3 Zrotation Yrotation Xrotation
				JOINT LeftFoot
				{
					OFFSET 2.562200 -7.039590 0.000000
					CHANNELS 3 Zrotation Yrotation Xrotation
					JOINT LeftToeBase
					{
						OFFSET 0.157640 -0.433110 2.322550
						CHANNELS 3 Zrotation Yrotation Xrotation
						End Site
						{
							OFFSET 0.000000 0.000000 0.000000
						}
					}
				}
			}
		}
	}
	JOINT RHipJoint
	{
		OFFSET 0.000000 0.000000 0.000000
		CHANNELS 3 Zrotation Yrotation Xrotation
		JOINT RightUpLeg
		{
			OFFSET -1.305520 -1.794630 0.839290
			CHANNELS 3 Zrotation Yrotation Xrotation
			JOINT RightLeg
			{
				OFFSET -2.542530 -6.985550 0.000000
				CHANNELS 3 Zrotation Yrotation Xrotation
				JOINT RightFoot
				{
					OFFSET -2.568260 -7.056230 0.000000
					CHANNELS 3 Zrotation Yrotation Xrotation
					JOINT RightToeBase
					{
						OFFSET -0.164730 -0.452590 2.363150
						CHANNELS 3 Zrotation Yrotation Xrotation
						End Site
						{
							OFFSET 0.000000 0.000000 0.000000
						}
					}
				}
			}
		}
	}
	JOINT LowerBack
	{
		OFFSET 0.000000 0.000000 0.000000
		CHANNELS 3 Zrotation Yrotation Xrotation
		JOINT Spine
		{
			OFFSET 0.028270 2.035590 -0.193380
			CHANNELS 3 Zrotation Yrotation Xrotation
			JOINT Spine1
			{
				OFFSET 0.056720 2.048850 -0.042750
				CHANNELS 3 Zrotation Yrotation Xrotation
				JOINT Neck
				{
					OFFSET 0.000000 0.000000 0.000000
					CHANNELS 3 Zrotation Yrotation Xrotation
					JOINT Neck1
					{
						OFFSET -0.054170 1.746240 0.172020
						CHANNELS 3 Zrotation Yrotation Xrotation
						JOINT Head
						{
							OFFSET 0.104070 1.761360 -0.123970
							CHANNELS 3 Zrotation Yrotation Xrotation
							End Site
							{
								OFFSET 0.000000 0.000000 0.000000
							}
						}
					}
				}
				JOINT LeftShoulder
				{
					OFFSET 0.000000 0.000000 0.000000
					CHANNELS 3 Zrotation Yrotation Xrotation
					JOINT LeftArm
					{
						OFFSET 3.362410 1.200890 -0.311210
						CHANNELS 3 Zrotation Yrotation Xrotation
						JOINT LeftForeArm
						{
							OFFSET 4.983000 -0.000000 -0.000000
							CHANNELS 3 Zrotation Yrotation Xrotation
							JOINT LeftHand
							{
								OFFSET 3.483560 -0.000000 -0.000000
								CHANNELS 3 Zrotation Yrotation Xrotation
								JOINT LeftFingerBase
								{
									OFFSET 0.000000 0.000000 0.000000
									CHANNELS 3 Zrotation Yrotation Xrotation
									JOINT LeftHandIndex1
									{
										OFFSET 0.715260 -0.000000 -0.000000
										CHANNELS 3 Zrotation Yrotation Xrotation
										End Site
										{
											OFFSET 0.000000 0.000000 0.000000
										}
									}
								}
								JOINT LThumb
								{
									OFFSET 0.000000 0.000000 0.000000
									CHANNELS 3 Zrotation Yrotation Xrotation
									End Site
									{
										OFFSET 0.000000 0.000000 0.000000
									}
								}
							}
						}
					}
				}
				JOINT RightShoulder
				{
					OFFSET 0.000000 0.000000 0.000000
					CHANNELS 3 Zrotation Yrotation Xrotation
					JOINT RightArm
					{
						OFFSET -3.136600 1.374050 -0.404650
						CHANNELS 3 Zrotation Yrotation Xrotation
						JOINT RightForeArm
						{
							OFFSET -5.241900 -0.000000 -0.000000
							CHANNELS 3 Zrotation Yrotation Xrotation
							JOINT RightHand
							{
								OFFSET -3.444170 -0.000000 -0.000000
								CHANNELS 3 Zrotation Yrotation Xrotation
								JOINT RightFingerBase
								{
									OFFSET 0.000000 0.000000 0.000000
									CHANNELS 3 Zrotation Yrotation Xrotation
									JOINT RightHandIndex1
									{
										OFFSET -0.622530 -0.000000 -0.000000
										CHANNELS 3 Zrotation Yrotation Xrotation
										End Site
										{
											OFFSET 0.000000 0.000000 0.000000
										}
									}
								}
								JOINT RThumb
								{
									OFFSET 0.000000 0.000000 0.000000
									CHANNELS 3 Zrotation Yrotation Xrotation
									End Site
									{
										OFFSET 0.000000 0.000000 0.000000
									}
								}
							}
						}
					}
				}
			}
		}
	}
}
MOTION
Frames: 4
Frame Time: 0.008333
-7.361245 17.884682 5.493664 -4.767080 32.597648 4.606229 -1.782708 3.137450 2.778363 6.174072 14.170881 -10.188996 4.767211 11.374604 34.104907 -1.589252 21.727609 26.465200 2.106300 -9.084100 -26.058800 5.695858 0.246025 -0.810586 17.589237 23.423070 -20.313034 -2.390058 -9.991678 30.829561 -0.853739 27.780719 22.034428 -4.777100 -13.128300 39.850800 -17.874808 -10.754558 3.714987 -10.330987 -15.148729 -3.379966 6.600846 -7.459591 0.121922 -0.046118 24.463980 -1.576222 -7.912605 33.068859 4.861750 -1.490900 15.239800 6.301900 1.684153 3.709889 -1.276083 163.843330 -37.405725 -173.854536 24.096813 -32.326225 -6.946767 0.354651 0.218831 -4.191046 22.078186 -1.366841 -0.628200 -7.125000 0.000000 0.000000 7.014100 -61.688100 177.143800 1.595807 -5.813174 -1.071502 25.214285 47.487562 -28.593739 -127.450687 54.660760 -89.871674 0.465806 -0.454254 3.274027 -66.933134 10.668017 -25.680000 7.125000 0.000000 0.000000 -25.065200 -4.016000 -25.918000 
-7.362760 17.886500 5.490836 -4.640507 32.503273 4.684297 -1.787741 3.134541 2.779709 6.135951 14.275886 -10.235572 4.768068 11.387971 34.184947 -1.454750 21.295933 26.720168 2.151600 -9.174900 -26.344100 5.692093 0.247180 -0.814261 17.465472 23.488344 -20.304440 -2.377995 -9.976247 30.789304 -0.871084 27.712222 22.214583 -4.824000 -13.182800 40.056500 -17.903067 -10.717807 3.836273 -10.391090 -15.133039 -3.391931 6.610266 -7.441757 0.030648 -0.031202 24.501356 -1.533953 -7.954427 33.114106 4.814215 -1.504300 15.263800 6.290400 1.689996 3.705956 -1.279991 163.506286 -37.210276 -173.560687 24.124010 -32.329284 -6.955187 0.357300 0.224054 -4.014455 22.274379 -1.326916 -0.621100 -7.125000 0.000000 0.000000 6.727300 -61.656800 177.266100 1.592113 -5.812046 -1.085004 24.534422 47.308432 -29.162548 -127.415719 54.648971 -89.849501 0.468951 -0.451049 3.378596 -66.937887 10.364795 -25.093900 7.125000 0.000000 0.000000 -25.169400 -4.613900 -25.743300 
-7.363770 17.887712 5.484978 -4.588572 32.420622 4.754050 -1.779877 3.134152 2.776559 6.145781 14.460510 -10.356426 4.770797 11.400353 34.268510 -1.251344 20.695609 27.160770 2.197400 -9.265800 -26.630200 5.685740 0.247657 -0.817359 17.394426 23.530318 -20.351243 -2.368047 -9.959374 30.753364 -0.873901 27.729721 22.438776 -4.839200 -13.200400 40.123200 -17.855936 -10.684301 3.926510 -10.429554 -15.108676 -3.373665 6.587610 -7.425098 -0.041017 -0.064237 24.525390 -1.597574 -7.984725 33.139717 4.744298 -1.503400 15.273800 6.277300 1.696238 3.702637 -1.283291 163.221009 -37.014600 -173.410509 24.187803 -32.375403 -6.981902 0.357568 0.226641 -3.943859 22.237372 -1.284614 -0.604300 -7.125000 0.000000 0.000000 6.770200 -61.613900 177.255500 1.590257 -5.809362 -1.098459 23.887324 47.141079 -29.750775 -127.441860 54.617695 -89.879171 0.472769 -0.447847 3.366120 -66.862032 10.063867 -24.419300 7.125000 0.000000 0.000000 -25.234500 -5.278100 -25.477900 
-7.364780 17.889227 5.477605 -4.608073 32.404255 4.830584 -1.761351 3.123641 2.767493 6.185236 14.550409 -10.525973 4.770701 11.415904 34.346094 -1.043913 20.091466 27.633097 2.263900 -9.395500 -27.040400 5.678735 0.256399 -0.819236 17.369116 23.486986 -20.483367 -2.360741 -9.940781 30.715387 -0.860481 27.828227 22.571569 -4.809000 -13.165400 39.991000 -17.778826 -10.672595 3.990213 -10.413965 -15.106536 -3.371871 6.579310 -7.420103 -0.096696 -0.107197 24.538082 -1.650333 -8.018556 33.149265 4.674642 -1.505700 15.276600 6.260500 1.698008 3.701785 -1.280046 162.950349 -36.932902 -173.138096 24.274009 -32.452431 -7.027501 0.361688 0.231478 -3.846650 22.595444 -1.273248 -0.613000 -7.125000 0.000000 0.000000 6.261800 -61.617100 177.462000 1.589222 -5.807504 -1.112719 23.254915 46.993324 -30.330381 -127.399791 54.610424 -89.849679 0.475679 -0.445751 3.368010 -66.800895 9.875294 -23.979300 7.125000 0.000000 0.000000 -25.270000 -5.708100 -25.294300 
